<?xml version="1.0" standalone="no"?>
<!DOCTYPE svg PUBLIC "-//W3C//DTD SVG 20010904//EN"
 "http://www.w3.org/TR/2001/REC-SVG-20010904/DTD/svg10.dtd">
<svg version="1.0" xmlns="http://www.w3.org/2000/svg"
 width="2000.000000pt" height="2000.000000pt" viewBox="0 0 2000.000000 2000.000000"
 preserveAspectRatio="xMidYMid meet">

<g transform="translate(0.000000,2000.000000) scale(0.100000,-0.100000)"
fill="#000000" stroke="none">
<path d="M4918 17176 c-86 -23 -157 -97 -176 -183 -6 -26 -8 -496 -5 -1210 5
-1119 -5 -2274 -27 -2951 -22 -673 -32 -1832 -21 -2352 19 -905 40 -1267 151
-2630 75 -914 80 -992 80 -1131 0 -77 -7 -222 -16 -322 -14 -170 -14 -194 2
-347 12 -112 19 -277 21 -512 l4 -348 -428 0 c-808 -1 -1401 -23 -2183 -82
-302 -22 -695 -29 -885 -15 -104 8 -112 7 -155 -15 -157 -81 -176 -327 -33
-418 54 -35 87 -45 193 -60 94 -14 519 -14 705 0 249 18 884 59 1095 70 113 6
714 15 1335 20 622 5 1258 14 1415 20 569 20 829 31 1030 40 489 23 984 9
1218 -36 87 -17 95 -17 146 -1 60 19 126 82 152 142 18 44 18 156 0 199 -35
83 -122 133 -282 161 -277 48 -633 55 -1364 25 -615 -24 -1079 -40 -1293 -43
l-167 -2 0 280 c0 214 -5 332 -21 500 -22 219 -22 221 -4 459 21 279 18 371
-25 901 -151 1853 -170 2155 -191 2990 -12 484 -7 1639 11 2235 28 959 33
1409 34 2712 l1 1417 55 -4 c30 -3 152 -12 270 -20 118 -9 337 -27 485 -41
1334 -123 1875 -154 2685 -154 647 0 1330 21 2085 65 323 18 798 42 1010 50
150 6 716 37 923 52 l92 6 0 -144 c0 -79 -7 -306 -15 -504 -8 -198 -19 -479
-25 -625 -13 -327 -56 -753 -106 -1042 -32 -188 -36 -242 -43 -491 l-6 -259
-75 -24 c-41 -13 -80 -24 -85 -24 -6 0 -21 28 -34 63 -100 266 -335 570 -522
675 -113 63 -180 84 -287 90 -192 9 -315 -40 -457 -183 -49 -49 -105 -116
-124 -148 -114 -194 -176 -517 -152 -795 19 -225 62 -404 136 -557 65 -136
213 -320 307 -382 l39 -27 -6 -105 c-12 -178 22 -439 80 -615 163 -498 534
-838 1066 -976 184 -47 262 -55 536 -55 139 0 253 -1 253 -2 0 -1 -21 -34 -46
-73 -67 -104 -159 -302 -189 -405 -51 -177 -68 -364 -45 -486 8 -42 8 -56 -2
-62 -128 -76 -304 -183 -423 -257 -350 -217 -572 -342 -663 -374 -64 -23 -109
-62 -138 -122 -23 -47 -26 -63 -22 -119 7 -80 47 -155 107 -199 57 -41 147
-48 240 -16 115 39 325 152 626 340 224 140 427 265 462 285 l32 19 23 -30
c12 -16 48 -56 80 -90 l57 -60 -46 -95 c-42 -87 -136 -262 -292 -546 -67 -124
-143 -300 -166 -389 -42 -161 -1 -273 120 -330 95 -45 212 -28 282 42 33 34
46 58 67 127 40 130 83 224 210 455 63 116 141 262 172 324 31 62 58 115 60
117 2 2 61 -23 131 -56 363 -173 824 -283 1321 -314 193 -12 720 -6 937 11
286 22 638 72 838 119 l78 18 33 -52 c19 -28 64 -105 101 -171 236 -417 394
-652 539 -802 180 -186 286 -254 395 -254 126 0 226 98 238 234 10 102 -26
160 -157 253 -77 55 -197 191 -287 326 -117 176 -380 617 -371 623 2 2 57 31
123 66 66 34 157 87 201 117 105 70 252 207 311 290 l46 65 22 -24 c12 -13 81
-87 154 -166 123 -131 333 -330 492 -464 168 -141 528 -377 643 -420 38 -15
69 -19 118 -16 82 4 137 38 183 113 25 41 31 61 34 127 3 70 0 82 -24 123 -23
41 -95 105 -116 105 -15 0 -195 113 -336 212 -78 54 -200 149 -270 210 -145
126 -413 392 -492 489 -30 35 -99 113 -154 173 -106 114 -168 156 -234 156
-27 0 -35 7 -59 48 -77 133 -204 277 -363 412 l-112 95 39 7 c22 4 58 16 81
27 24 13 60 21 88 21 71 1 126 31 196 107 164 180 402 385 707 608 176 128
607 416 777 519 45 27 65 45 69 64 9 36 68 134 121 199 l43 53 1 132 c0 93 5
153 18 200 16 63 16 66 0 57 -25 -13 -25 -13 -25 39 -1 65 -20 118 -62 164
-49 54 -102 79 -186 87 -50 4 -81 13 -103 29 -92 65 -232 79 -361 36 -428
-142 -1141 -829 -1604 -1544 -128 -198 -278 -467 -278 -499 0 -23 -23 -18
-111 23 -249 116 -563 221 -814 271 -66 13 -212 35 -325 49 -726 89 -1187 88
-1634 -4 -54 -11 -103 -20 -109 -20 -5 0 21 23 59 52 109 81 245 227 324 344
120 180 181 316 230 515 82 329 33 646 -148 953 -29 48 -52 89 -52 90 0 2 26
-6 58 -17 106 -36 216 -4 274 78 54 76 158 474 188 715 15 122 12 304 -5 405
-32 182 -102 306 -220 390 -89 64 -159 87 -276 93 -164 7 -333 -51 -494 -170
-100 -74 -259 -238 -339 -348 -74 -104 -188 -326 -208 -405 -7 -27 -13 -51
-14 -53 -1 -1 -39 4 -85 12 -52 9 -111 29 -155 50 -75 37 -214 76 -273 76
l-33 0 5 253 c3 138 11 275 17 302 51 233 115 859 130 1270 6 165 15 415 21
555 12 271 13 658 3 726 -4 32 -1 51 17 85 19 35 24 60 24 119 0 66 -4 82 -31
130 -63 112 -139 136 -329 107 -202 -32 -630 -62 -1230 -87 -309 -13 -785 -36
-1005 -50 -312 -19 -1066 -49 -1520 -61 -884 -22 -1676 12 -2845 121 -544 51
-826 74 -1115 90 -225 13 -314 12 -372 -4z m9830 -3243 c13 -30 16 -67 16
-168 -1 -155 -21 -276 -95 -550 -41 -154 -50 -200 -46 -242 l5 -51 -81 82
c-93 93 -208 183 -323 252 -43 26 -81 48 -82 50 -5 3 44 112 91 204 108 209
304 407 447 451 43 13 51 10 68 -28z m-3086 -84 c91 -47 209 -189 291 -354 27
-55 67 -162 67 -181 0 -2 -35 -30 -78 -63 -144 -109 -289 -269 -363 -398 -13
-24 -27 -43 -32 -43 -16 0 -65 92 -90 169 -44 131 -60 256 -53 416 8 225 51
362 136 439 46 42 65 44 122 15z m1518 -730 c62 -14 124 -52 196 -120 33 -32
81 -68 107 -79 54 -24 59 -35 18 -43 -43 -9 -112 -67 -138 -116 -30 -57 -30
-128 -2 -232 l22 -78 -30 -35 c-17 -19 -36 -49 -42 -68 -8 -26 -46 -62 -156
-152 -157 -128 -180 -153 -201 -224 -40 -131 75 -296 215 -310 88 -8 145 22
340 181 l104 86 48 -54 c80 -87 176 -110 275 -66 155 69 203 233 108 371 -19
27 -34 53 -34 57 1 12 118 89 183 119 56 26 99 66 120 111 6 13 14 23 18 23
13 0 98 -184 119 -260 87 -315 -92 -742 -404 -965 -257 -183 -745 -292 -1141
-255 -311 29 -547 125 -722 293 -267 257 -367 673 -262 1092 21 82 90 226 134
280 l24 29 86 -176 c47 -97 85 -181 85 -186 0 -5 -14 -27 -31 -48 -113 -140
-81 -312 71 -389 68 -34 111 -38 181 -19 47 13 65 14 85 5 40 -18 133 -13 184
10 134 60 189 203 126 328 l-25 48 77 100 c111 142 134 184 140 259 6 78 -19
136 -85 194 -108 95 -255 87 -343 -17 -18 -21 -34 -33 -36 -27 -5 12 -83 148
-104 182 -19 28 -16 31 100 72 238 87 435 113 590 79z m652 -213 c29 -12 80
-39 112 -59 l60 -36 -46 -20 c-25 -10 -64 -31 -87 -45 -22 -14 -43 -26 -45
-26 -2 0 -14 20 -26 45 -26 54 -81 102 -132 116 -21 5 -38 14 -38 19 0 4 17
17 38 27 43 22 80 17 164 -21z m1828 -2496 c207 -20 515 -59 624 -80 360 -70
843 -271 1161 -483 161 -108 351 -303 410 -421 47 -93 32 -140 -71 -235 -292
-268 -841 -430 -1641 -487 -329 -23 -909 -15 -1108 15 -574 88 -964 241 -1251
489 -221 192 -297 402 -234 647 24 94 108 273 166 356 77 110 154 179 154 139
0 -19 82 -69 132 -79 46 -10 65 -8 227 33 201 51 393 92 531 111 112 17 711
13 900 -5z"/>
</g>
</svg>
