<?xml version="1.0" standalone="no"?>
<!DOCTYPE svg PUBLIC "-//W3C//DTD SVG 20010904//EN"
 "http://www.w3.org/TR/2001/REC-SVG-20010904/DTD/svg10.dtd">
<svg version="1.0" xmlns="http://www.w3.org/2000/svg"
 width="2000.000000pt" height="2000.000000pt" viewBox="0 0 2000.000000 2000.000000"
 preserveAspectRatio="xMidYMid meet">

<g transform="translate(0.000000,2000.000000) scale(0.100000,-0.100000)"
fill="#000000" stroke="none">
<path d="M7100 5249 c-903 -40 -1326 -50 -2415 -59 -1301 -11 -1515 -18 -2365
-82 -302 -22 -695 -29 -885 -15 -104 8 -112 7 -155 -15 -157 -81 -176 -327
-33 -418 54 -35 87 -45 193 -60 94 -14 519 -14 705 0 249 18 884 59 1095 70
113 6 714 15 1335 20 622 5 1258 14 1415 20 569 20 829 31 1030 40 489 23 984
9 1218 -36 87 -17 95 -17 146 -1 60 19 126 82 152 142 18 44 18 156 0 199 -21
51 -79 102 -141 125 -182 68 -702 97 -1295 70z"/>
</g>
</svg>
