<?xml version="1.0" standalone="no"?>
<!DOCTYPE svg PUBLIC "-//W3C//DTD SVG 20010904//EN"
 "http://www.w3.org/TR/2001/REC-SVG-20010904/DTD/svg10.dtd">
<svg version="1.0" xmlns="http://www.w3.org/2000/svg"
 width="2000.000000pt" height="2000.000000pt" viewBox="0 0 2000.000000 2000.000000"
 preserveAspectRatio="xMidYMid meet">

<g transform="translate(0.000000,2000.000000) scale(0.100000,-0.100000)"
fill="#000000" stroke="none">
<path d="M4874 17146 c-61 -29 -89 -56 -118 -116 l-21 -45 3 -1250 c4 -1185
-7 -2212 -28 -2900 -22 -704 -32 -1825 -21 -2352 19 -906 40 -1268 151 -2633
75 -914 80 -992 80 -1131 0 -77 -7 -222 -16 -322 -14 -170 -14 -194 2 -347 12
-112 19 -277 21 -512 l4 -348 -428 0 c-808 -1 -1401 -23 -2183 -82 -302 -22
-695 -29 -885 -15 -104 8 -112 7 -155 -15 -157 -81 -176 -327 -33 -418 54 -35
87 -45 193 -60 94 -14 519 -14 705 0 249 18 884 59 1095 70 113 6 714 15 1335
20 622 5 1258 14 1415 20 569 20 829 31 1030 40 489 23 984 9 1218 -36 87 -17
95 -17 146 -1 60 19 126 82 152 142 18 44 18 156 0 199 -35 83 -122 133 -282
161 -277 48 -633 55 -1364 25 -615 -24 -1079 -40 -1293 -43 l-167 -2 0 280 c0
214 -5 332 -21 500 -22 219 -22 221 -4 459 21 279 18 371 -25 901 -151 1853
-170 2155 -191 2990 -12 489 -7 1630 11 2245 23 804 30 1254 36 2270 3 591 1
1316 -3 1610 -8 511 -10 537 -30 580 -11 25 -31 56 -43 69 -38 39 -118 71
-180 71 -37 0 -72 -8 -106 -24z"/>
</g>
</svg>
