<?xml version="1.0" standalone="no"?>
<!DOCTYPE svg PUBLIC "-//W3C//DTD SVG 20010904//EN"
 "http://www.w3.org/TR/2001/REC-SVG-20010904/DTD/svg10.dtd">
<svg version="1.0" xmlns="http://www.w3.org/2000/svg"
 width="2000.000000pt" height="2000.000000pt" viewBox="0 0 2000.000000 2000.000000"
 preserveAspectRatio="xMidYMid meet">

<g transform="translate(0.000000,2000.000000) scale(0.100000,-0.100000)"
fill="#000000" stroke="none">
<path d="M4918 17176 c-86 -23 -157 -97 -176 -183 -6 -26 -8 -496 -5 -1210 5
-1119 -5 -2274 -27 -2951 -22 -673 -32 -1832 -21 -2352 19 -905 40 -1267 151
-2630 75 -914 80 -992 80 -1131 0 -77 -7 -222 -16 -322 -14 -170 -14 -194 2
-347 12 -112 19 -277 21 -512 l4 -348 -428 0 c-808 -1 -1401 -23 -2183 -82
-302 -22 -695 -29 -885 -15 -104 8 -112 7 -155 -15 -157 -81 -176 -327 -33
-418 54 -35 87 -45 193 -60 94 -14 519 -14 705 0 249 18 884 59 1095 70 113 6
714 15 1335 20 622 5 1258 14 1415 20 569 20 829 31 1030 40 489 23 984 9
1218 -36 87 -17 95 -17 146 -1 60 19 126 82 152 142 18 44 18 156 0 199 -35
83 -122 133 -282 161 -277 48 -633 55 -1364 25 -615 -24 -1079 -40 -1293 -43
l-167 -2 0 280 c0 214 -5 332 -21 500 -22 219 -22 221 -4 459 21 279 18 371
-25 901 -151 1853 -170 2155 -191 2990 -12 484 -7 1639 11 2235 28 959 33
1409 34 2712 l1 1417 55 -4 c30 -3 152 -12 270 -20 118 -9 337 -27 485 -41
1334 -123 1875 -154 2685 -154 647 0 1330 21 2085 65 317 18 795 42 1005 50
255 9 844 45 1015 61 345 32 445 64 503 163 23 39 27 58 27 121 0 65 -4 82
-31 130 -63 112 -139 136 -329 107 -202 -32 -630 -62 -1230 -87 -309 -13 -785
-36 -1005 -50 -312 -19 -1066 -49 -1520 -61 -884 -22 -1676 12 -2845 121 -544
51 -826 74 -1115 90 -225 13 -314 12 -372 -4z"/>
<path d="M12855 13619 c-284 -39 -659 -185 -882 -345 -319 -228 -506 -534
-568 -929 -52 -328 -8 -669 122 -958 188 -416 530 -694 1004 -817 185 -47 261
-55 544 -55 302 0 447 18 684 85 175 50 240 74 376 143 336 168 595 456 738
818 46 115 87 304 94 425 23 439 -196 866 -602 1176 -61 46 -214 142 -283 177
-117 59 -440 161 -511 161 -13 0 -62 18 -108 40 -123 59 -221 80 -393 85 -80
2 -176 0 -215 -6z m325 -500 c62 -14 123 -52 200 -124 103 -97 182 -115 287
-69 21 9 49 16 63 14 72 -7 258 -109 386 -212 153 -123 285 -320 334 -498 87
-315 -92 -742 -404 -965 -257 -183 -745 -292 -1141 -255 -311 29 -547 125
-722 293 -267 257 -367 673 -262 1092 84 331 400 589 864 705 151 38 282 44
395 19z"/>
<path d="M12456 12566 c-90 -34 -139 -96 -182 -233 -23 -74 -25 -87 -15 -135
38 -175 210 -266 359 -189 151 78 216 308 129 452 -57 94 -191 142 -291 105z"/>
<path d="M13510 12531 c-76 -25 -167 -107 -196 -176 -25 -61 -21 -145 11 -210
43 -89 124 -137 230 -138 107 -1 174 48 231 167 64 133 29 261 -91 332 -48 28
-139 40 -185 25z"/>
</g>
</svg>
